# xmcd
#
# Track frame offsets:
#	210
#	12002
#	26405
#	39982
#	50602
#	66000
#	77442
#	86622
#	104432
#	114080
#	126852
#	139237
#	151540
#	165570
#	183072
#	197672
#	216200
#	225827
#	236572
#	247755
#	259982
#
# Disc length: 3625 seconds
# Revision: 1
# Processed by: cddbd v1.5.2PL0 Copyright (c) Steve Scherf et al.
# Submitted via: dBpowerAMP V12.0
#
DISCID=f80e2715
DTITLE=Country Gazette - Hello Operator...This Is Country Gazette
DYEAR=1991
DGENRE=Bluegrass
TTITLE0=Saro Jane
TTITLE1=The Virginia Boys
TTITLE2=Love, Lost and Found
TTITLE3=Don't Let Nobody Tie You Down
TTITLE4=Sweet Allis Chalmers
TTITLE5=You Can't Get the Hell Out of Texas
TTITLE6=Charlotte Breakdown
TTITLE7=The Great Joe Bob (A Regional Tragedy)
TTITLE8=Still Feeling Blue
TTITLE9=Uncle Clooney Played the Banjo (But Mostly Out of Time)
TTITLE10=Molly and Tenbrooks
TTITLE11=Kentucky Waltz
TTITLE12=Blue Light
TTITLE13=Tallahassee
TTITLE14=Highland Dream
TTITLE15=The Last Thing on My Mind
TTITLE16=Hello Operator
TTITLE17=The Great American Banjo Tune
TTITLE18=Nothing Is Left But the Blues
TTITLE19=Cabin on a Mountain
TTITLE20=Done Gone
EXTD=
EXTT0=
EXTT1=
EXTT2=
EXTT3=
EXTT4=
EXTT5=
EXTT6=
EXTT7=
EXTT8=
EXTT9=
EXTT10=
EXTT11=
EXTT12=
EXTT13=
EXTT14=
EXTT15=
EXTT16=
EXTT17=
EXTT18=
EXTT19=
EXTT20=
PLAYORDER=
